<?xml version="1.0" encoding="UTF-8"?>
<svg xmlns="http://www.w3.org/2000/svg" viewBox="0 0 201.19 61.3">
  <defs>
    <style>.cls-1{fill:#0089cf;}.cls-2{fill:#a7a9ac;}.cls-3{fill:#003d7b;}</style>
  </defs>
  <g id="Capa_2" data-name="Capa 2">
    <g id="Capa_1-2" data-name="Capa 1">
      <rect class="cls-1" x="82.02" y="14.2" width="5.11" height="31.64" rx="2.24"></rect>
      <path class="cls-1" d="M129.24,43.6c.14,1.8-.3,2.24-2.1,2.24h-.73c-1.8,0-2.24-.44-2.38-2.24l-1.56-22.49c-.15-2.14-.63-2.62-1.7-2.62s-1.42.48-1.71,2.62l-2.63,19.57c-.48,3.7-1.6,5.16-5.4,5.16-3.11,0-4.87-1.12-5.4-5.16L103,21.11c-.29-2.14-.78-2.62-1.75-2.62s-1.51.48-1.66,2.62L98,43.6c-.09,1.8-.58,2.24-2.38,2.24h-.73c-1.8,0-2.24-.44-2.09-2.24l1.65-22.53c.39-5.11,2.39-7.16,6.67-7.16,4,0,5.89,2,6.52,7.16L110,39.86c.19,1.46.34,1.75,1.07,1.75s.83-.29,1-1.75l2.29-18.79c.63-5.16,2.58-7.16,6.52-7.16,4.29,0,6.28,2,6.67,7.16Z"></path>
      <path class="cls-1" d="M139.7,39.17c0,1.32.59,1.85,1.9,1.85h12.32c1.75,0,2.19.44,2.19,2.19v.44c0,1.76-.44,2.19-2.19,2.19H140.14c-3.89,0-5.55-1.65-5.55-5.55V19.75c0-3.89,1.66-5.55,5.55-5.55h13.78c1.75,0,2.19.44,2.19,2.19v.44c0,1.75-.44,2.19-2.19,2.19H141.6c-1.31,0-1.9.54-1.9,1.85V27.1H152c1.75,0,2.19.44,2.19,2.19v.44c0,1.75-.44,2.19-2.19,2.19H139.7Z"></path>
      <path class="cls-1" d="M181.32,38.1c-1.46,5.84-2.77,8.18-7.93,8.18s-6.48-2.34-7.94-8.18l-5.4-21.71c-.44-1.75-.1-2.19,1.7-2.19h.83c1.8,0,2.34.44,2.78,2.19l5.25,21.81c.68,2.78,1.17,3.51,2.78,3.51s2.09-.73,2.77-3.51l5.26-21.81c.44-1.75,1-2.19,2.77-2.19H185c1.8,0,2.14.44,1.7,2.19Z"></path>
      <rect class="cls-1" x="192.32" y="14.2" width="5.11" height="31.64" rx="2.24"></rect>
      <path class="cls-1" d="M69.91,34.74a22.6,22.6,0,1,1-5.65-22.55l0,0a30.25,30.25,0,1,0,5.62,22.52"></path>
      <path class="cls-2" d="M78.79,56.64a1.09,1.09,0,0,1,.41-.9,1.81,1.81,0,0,1,1.17-.33,1.66,1.66,0,0,1,1.65.82c.08.15,0,.26-.13.34l-.34.14c-.09,0-.15,0-.19,0s-.08-.06-.14-.14a.85.85,0,0,0-.82-.4c-.49,0-.73.14-.73.42a.34.34,0,0,0,.19.33,2.05,2.05,0,0,0,.71.14,2.48,2.48,0,0,1,1.2.35,1,1,0,0,1,.37.89,1.16,1.16,0,0,1-.44.94,2,2,0,0,1-1.22.34c-.9,0-1.48-.31-1.71-.93a.22.22,0,0,1,.15-.32l.35-.11c.15-.06.25,0,.31.15s.4.42.87.42.81-.15.81-.45a.36.36,0,0,0-.19-.35,2.68,2.68,0,0,0-.73-.15,2.93,2.93,0,0,1-.86-.18,1,1,0,0,1-.37-.21,1.06,1.06,0,0,1-.32-.84"></path>
      <path class="cls-2" d="M82.59,58.08V56.94a1.42,1.42,0,0,1,.46-1.13,2.33,2.33,0,0,1,2.61,0,1.43,1.43,0,0,1,.47,1.13v1.14a1.41,1.41,0,0,1-.47,1.12,2.28,2.28,0,0,1-2.61,0,1.4,1.4,0,0,1-.46-1.12m2.65,0V56.94A.65.65,0,0,0,85,56.4a1,1,0,0,0-.65-.19,1,1,0,0,0-.65.19.65.65,0,0,0-.23.54v1.14a.66.66,0,0,0,.23.53,1,1,0,0,0,.65.19,1,1,0,0,0,.65-.19.66.66,0,0,0,.23-.53"></path>
      <path class="cls-2" d="M87.8,54.05v5.21a.28.28,0,0,1,0,.18.26.26,0,0,1-.19.05h-.41c-.09,0-.16,0-.19-.05a.28.28,0,0,1,0-.18V54.05a.3.3,0,0,1,0-.18s.1,0,.19,0h.41a.26.26,0,0,1,.19,0,.3.3,0,0,1,0,.18"></path>
      <path class="cls-2" d="M91.43,55.52h.41a.31.31,0,0,1,.19,0s0,.09,0,.18v3.16a.62.62,0,0,1,0,.27.51.51,0,0,1-.25.16,4.08,4.08,0,0,1-1.5.27,1.63,1.63,0,0,1-1.2-.4,1.51,1.51,0,0,1-.4-1.14V55.75c0-.09,0-.15,0-.18a.3.3,0,0,1,.18,0h.43a.3.3,0,0,1,.18,0,.26.26,0,0,1,0,.18V58c0,.5.27.76.83.76a2.21,2.21,0,0,0,.71-.1.13.13,0,0,0,.08-.13V55.75a.22.22,0,0,1,.06-.18.26.26,0,0,1,.18,0"></path>
      <path class="cls-2" d="M92.83,58V57a1.49,1.49,0,0,1,.44-1.17,2.34,2.34,0,0,1,2.38-.14,1.37,1.37,0,0,1,.58.74.25.25,0,0,1-.16.35l-.34.1a.23.23,0,0,1-.34-.16.8.8,0,0,0-.84-.51c-.55,0-.83.25-.83.75v1.14a.71.71,0,0,0,.21.55.91.91,0,0,0,.62.2.81.81,0,0,0,.84-.53c0-.1.08-.15.13-.17a.31.31,0,0,1,.21,0l.34.1a.24.24,0,0,1,.16.35,1.63,1.63,0,0,1-1.71,1,1.79,1.79,0,0,1-1.27-.41A1.54,1.54,0,0,1,92.83,58"></path>
      <path class="cls-2" d="M97.34,54h0a.38.38,0,0,1,.47.46v.07a.51.51,0,0,1-.1.37.5.5,0,0,1-.37.1h0a.51.51,0,0,1-.37-.1.56.56,0,0,1-.1-.37v-.07a.5.5,0,0,1,.1-.36.51.51,0,0,1,.37-.1m-.18,1.49h.42a.3.3,0,0,1,.18,0,.22.22,0,0,1,.06.18v3.51a.23.23,0,0,1-.06.18.24.24,0,0,1-.18.06h-.42a.25.25,0,0,1-.19-.06.28.28,0,0,1,0-.18V55.75a.26.26,0,0,1,0-.18.31.31,0,0,1,.19,0"></path>
      <path class="cls-2" d="M98.57,58.08V56.94A1.42,1.42,0,0,1,99,55.81a1.91,1.91,0,0,1,1.3-.4,1.94,1.94,0,0,1,1.31.4,1.42,1.42,0,0,1,.46,1.13v1.14a1.4,1.4,0,0,1-.46,1.12,1.94,1.94,0,0,1-1.31.41A1.91,1.91,0,0,1,99,59.2a1.4,1.4,0,0,1-.46-1.12m2.64,0V56.94a.63.63,0,0,0-.23-.54,1,1,0,0,0-.65-.19,1,1,0,0,0-.65.19.65.65,0,0,0-.22.54v1.14a.65.65,0,0,0,.22.53,1,1,0,0,0,.65.19,1,1,0,0,0,.65-.19.63.63,0,0,0,.23-.53"></path>
      <path class="cls-2" d="M103.15,55.67a3.88,3.88,0,0,1,1.51-.27,1.67,1.67,0,0,1,1.2.4,1.57,1.57,0,0,1,.39,1.15v2.31a.23.23,0,0,1,0,.18s-.09.05-.18.05h-.42c-.09,0-.15,0-.18-.05a.23.23,0,0,1,0-.18V57q0-.75-.84-.75a2.59,2.59,0,0,0-.74.1.08.08,0,0,0-.05.07v2.87a.28.28,0,0,1,0,.18s-.09.05-.18.05h-.42a.26.26,0,0,1-.19-.05.28.28,0,0,1-.05-.18V56.1a.49.49,0,0,1,.06-.27.52.52,0,0,1,.24-.16"></path>
      <path class="cls-2" d="M107,58v-.91a1.57,1.57,0,0,1,.46-1.23,1.87,1.87,0,0,1,1.32-.43,1.84,1.84,0,0,1,1.31.44,1.49,1.49,0,0,1,.46,1.15v.47c0,.22-.11.33-.34.33h-2.32v.29a.72.72,0,0,0,.23.57.94.94,0,0,0,.64.19,1,1,0,0,0,.91-.4.32.32,0,0,1,.17-.15.28.28,0,0,1,.22.05l.27.15c.17.08.2.21.09.38a1.78,1.78,0,0,1-1.66.74,1.83,1.83,0,0,1-1.32-.43A1.65,1.65,0,0,1,107,58m2.66-.86v-.17a.75.75,0,0,0-.22-.58,1.19,1.19,0,0,0-1.32,0,.75.75,0,0,0-.23.58v.17Z"></path>
      <path class="cls-2" d="M111.17,56.64a1.08,1.08,0,0,1,.4-.9,1.84,1.84,0,0,1,1.18-.33,1.64,1.64,0,0,1,1.64.82.22.22,0,0,1-.12.34l-.35.14a.23.23,0,0,1-.19,0,.35.35,0,0,1-.13-.14.86.86,0,0,0-.83-.4q-.72,0-.72.42a.33.33,0,0,0,.19.33,2,2,0,0,0,.71.14,2.43,2.43,0,0,1,1.19.35,1,1,0,0,1,.37.89,1.15,1.15,0,0,1-.43.94,2,2,0,0,1-1.23.34,1.62,1.62,0,0,1-1.71-.93c-.06-.16,0-.26.16-.32l.34-.11a.22.22,0,0,1,.32.15c.11.28.4.42.86.42s.82-.15.82-.45a.37.37,0,0,0-.19-.35,2.68,2.68,0,0,0-.73-.15,3,3,0,0,1-.87-.18.9.9,0,0,1-.36-.21,1,1,0,0,1-.32-.84"></path>
      <path class="cls-2" d="M117.19,54h0a.38.38,0,0,1,.47.46v.07a.51.51,0,0,1-.1.37.5.5,0,0,1-.37.1h0a.5.5,0,0,1-.36-.1.51.51,0,0,1-.11-.37v-.07a.55.55,0,0,1,.1-.36.51.51,0,0,1,.37-.1M117,55.52h.42a.26.26,0,0,1,.18,0,.22.22,0,0,1,.06.18v3.51a.23.23,0,0,1-.06.18.22.22,0,0,1-.18.06H117a.22.22,0,0,1-.18-.06.23.23,0,0,1,0-.18V55.75c0-.09,0-.15,0-.18a.26.26,0,0,1,.18,0"></path>
      <path class="cls-2" d="M118.83,55.67a3.91,3.91,0,0,1,1.51-.27,1.65,1.65,0,0,1,1.2.4,1.53,1.53,0,0,1,.4,1.15v2.31a.28.28,0,0,1,0,.18.26.26,0,0,1-.19.05h-.42c-.09,0-.15,0-.18-.05a.28.28,0,0,1,0-.18V57q0-.75-.84-.75a2.52,2.52,0,0,0-.73.1.07.07,0,0,0-.06.07v2.87a.23.23,0,0,1,0,.18s-.09.05-.18.05h-.42c-.09,0-.15,0-.18-.05a.23.23,0,0,1-.06-.18V56.1a.49.49,0,0,1,.06-.27.52.52,0,0,1,.24-.16"></path>
      <path class="cls-2" d="M123.38,54.6h.42a.28.28,0,0,1,.18,0s0,.09,0,.18v.69h.88a.26.26,0,0,1,.18,0,.22.22,0,0,1,.06.18v.35a.25.25,0,0,1-.06.19.26.26,0,0,1-.18.05H124v1.54a1,1,0,0,0,.19.72,1,1,0,0,0,.68.17.3.3,0,0,1,.19,0,.25.25,0,0,1,.06.19v.36a.22.22,0,0,1-.06.18.24.24,0,0,1-.19.06,1.94,1.94,0,0,1-1.36-.33,1.86,1.86,0,0,1-.39-1.36V56.34h-.53a.19.19,0,0,1-.23-.24v-.35c0-.09,0-.15,0-.18a.26.26,0,0,1,.18,0h.53v-.69c0-.09,0-.15,0-.18a.3.3,0,0,1,.18,0"></path>
      <path class="cls-2" d="M125.61,58v-.91a1.57,1.57,0,0,1,.46-1.23,1.87,1.87,0,0,1,1.32-.43,1.84,1.84,0,0,1,1.31.44,1.49,1.49,0,0,1,.46,1.15v.47c0,.22-.11.33-.34.33H126.5v.29a.69.69,0,0,0,.23.57.94.94,0,0,0,.64.19,1,1,0,0,0,.91-.4.32.32,0,0,1,.17-.15.29.29,0,0,1,.22.05l.27.15c.17.08.2.21.09.38a1.79,1.79,0,0,1-1.66.74,1.83,1.83,0,0,1-1.32-.43,1.65,1.65,0,0,1-.44-1.21m2.66-.86v-.17a.75.75,0,0,0-.22-.58,1.19,1.19,0,0,0-1.32,0,.75.75,0,0,0-.23.58v.17Z"></path>
      <path class="cls-2" d="M129.78,57.88V57c0-1.08.57-1.62,1.73-1.62a3.31,3.31,0,0,1,1.39.24.59.59,0,0,1,.23.16.54.54,0,0,1,.05.26v3.57a1.7,1.7,0,0,1-.42,1.23,2.06,2.06,0,0,1-2.85-.3.22.22,0,0,1,.09-.38l.29-.16a.28.28,0,0,1,.22-.05.34.34,0,0,1,.17.14.87.87,0,0,0,.8.39.73.73,0,0,0,.81-.83v-.38a3.75,3.75,0,0,1-.92.14,1.67,1.67,0,0,1-1.2-.4,1.57,1.57,0,0,1-.39-1.15m2.44-1.58a2.82,2.82,0,0,0-.65-.08c-.6,0-.91.27-.91.83v.81a.74.74,0,0,0,.22.56.89.89,0,0,0,.62.19,3.62,3.62,0,0,0,.79-.1V56.39a.09.09,0,0,0-.07-.09"></path>
      <path class="cls-2" d="M135.73,55.4H136a.3.3,0,0,1,.18.05.26.26,0,0,1,.05.19V56c0,.09,0,.15-.05.18a.24.24,0,0,1-.18.06h-.28a2.55,2.55,0,0,0-.73.09.09.09,0,0,0-.08.09v2.86a.24.24,0,0,1,0,.18s-.09.05-.18.05h-.42c-.09,0-.15,0-.18-.05a.24.24,0,0,1-.06-.18V56.07a.49.49,0,0,1,.06-.27.62.62,0,0,1,.24-.17,5,5,0,0,1,1.43-.23"></path>
      <path class="cls-2" d="M136.6,56.2a1.61,1.61,0,0,1,1.59-.79c1.09,0,1.64.52,1.64,1.57v2a.52.52,0,0,1-.06.29.59.59,0,0,1-.22.15,3.72,3.72,0,0,1-1.38.2,2.1,2.1,0,0,1-1.34-.31,1.12,1.12,0,0,1-.37-.93,1.07,1.07,0,0,1,.4-1,2.36,2.36,0,0,1,1.34-.28l.74,0V57a.66.66,0,0,0-.77-.76.91.91,0,0,0-.81.37c-.05.08-.1.13-.14.14a.27.27,0,0,1-.19,0l-.3-.13a.23.23,0,0,1-.13-.35m2.34,2.5v-.8l-.44,0-.3,0h-.1a1,1,0,0,0-.57.12.45.45,0,0,0-.17.38.47.47,0,0,0,.16.39,1,1,0,0,0,.57.12,3.89,3.89,0,0,0,.76-.06.11.11,0,0,0,.09-.11"></path>
      <path class="cls-2" d="M141.56,54.05v5.21a.28.28,0,0,1-.05.18.26.26,0,0,1-.19.05h-.41c-.09,0-.16,0-.19-.05a.28.28,0,0,1-.05-.18V54.05a.3.3,0,0,1,.05-.18s.1,0,.19,0h.41a.26.26,0,0,1,.19,0,.3.3,0,0,1,.05.18"></path>
      <path class="cls-2" d="M142.34,58v-.91a1.6,1.6,0,0,1,.45-1.23,1.91,1.91,0,0,1,1.33-.43,1.85,1.85,0,0,1,1.31.44,1.49,1.49,0,0,1,.46,1.15v.47c0,.22-.12.33-.35.33h-2.31v.29a.71.71,0,0,0,.22.57,1,1,0,0,0,.65.19,1,1,0,0,0,.91-.4.32.32,0,0,1,.17-.15.29.29,0,0,1,.22.05l.27.15c.17.08.2.21.09.38a1.79,1.79,0,0,1-1.66.74,1.83,1.83,0,0,1-1.32-.43,1.61,1.61,0,0,1-.44-1.21m2.66-.86v-.17a.75.75,0,0,0-.22-.58,1.19,1.19,0,0,0-1.32,0,.72.72,0,0,0-.23.58v.17Z"></path>
      <path class="cls-2" d="M146.53,56.64a1.09,1.09,0,0,1,.41-.9,1.82,1.82,0,0,1,1.18-.33,1.64,1.64,0,0,1,1.64.82c.08.15,0,.26-.13.34l-.34.14c-.09,0-.15,0-.19,0s-.08-.06-.13-.14a.87.87,0,0,0-.83-.4q-.72,0-.72.42a.34.34,0,0,0,.18.33,2.11,2.11,0,0,0,.71.14,2.48,2.48,0,0,1,1.2.35,1,1,0,0,1,.37.89,1.15,1.15,0,0,1-.43.94,2,2,0,0,1-1.23.34,1.62,1.62,0,0,1-1.71-.93.22.22,0,0,1,.15-.32l.35-.11c.15-.06.25,0,.31.15s.41.42.87.42.81-.15.81-.45a.36.36,0,0,0-.19-.35,2.68,2.68,0,0,0-.73-.15,3,3,0,0,1-.86-.18.9.9,0,0,1-.36-.21,1,1,0,0,1-.33-.84"></path>
      <path class="cls-2" d="M152,58v-.91a1.6,1.6,0,0,1,.45-1.23,1.91,1.91,0,0,1,1.33-.43,1.85,1.85,0,0,1,1.31.44,1.49,1.49,0,0,1,.46,1.15v.47c0,.22-.12.33-.35.33H152.9v.29a.71.71,0,0,0,.22.57,1,1,0,0,0,.65.19,1,1,0,0,0,.91-.4c.06-.09.11-.14.17-.15a.29.29,0,0,1,.22.05l.27.15c.17.08.2.21.09.38a1.79,1.79,0,0,1-1.66.74,1.83,1.83,0,0,1-1.32-.43A1.61,1.61,0,0,1,152,58m2.66-.86v-.17a.78.78,0,0,0-.22-.58,1.19,1.19,0,0,0-1.32,0,.72.72,0,0,0-.23.58v.17Z"></path>
      <path class="cls-2" d="M156.55,55.67a3.88,3.88,0,0,1,1.51-.27,1.67,1.67,0,0,1,1.2.4,1.57,1.57,0,0,1,.4,1.15v2.31a.2.2,0,0,1-.24.23H159c-.09,0-.15,0-.18-.05a.23.23,0,0,1,0-.18V57q0-.75-.84-.75a2.59,2.59,0,0,0-.74.1.08.08,0,0,0-.05.07v2.87a.28.28,0,0,1,0,.18s-.09.05-.18.05h-.42a.26.26,0,0,1-.19-.05.28.28,0,0,1-.05-.18V56.1a.49.49,0,0,1,.06-.27.47.47,0,0,1,.24-.16"></path>
      <path class="cls-2" d="M162.13,56.64a1.08,1.08,0,0,1,.4-.9,1.84,1.84,0,0,1,1.18-.33,1.64,1.64,0,0,1,1.64.82.22.22,0,0,1-.12.34l-.35.14c-.09,0-.15,0-.19,0a.35.35,0,0,1-.13-.14.86.86,0,0,0-.83-.4q-.72,0-.72.42a.33.33,0,0,0,.19.33,2,2,0,0,0,.71.14,2.47,2.47,0,0,1,1.19.35,1,1,0,0,1,.37.89,1.15,1.15,0,0,1-.43.94,2,2,0,0,1-1.23.34,1.62,1.62,0,0,1-1.71-.93c-.06-.16,0-.26.16-.32l.34-.11a.22.22,0,0,1,.32.15c.11.28.4.42.86.42s.82-.15.82-.45a.37.37,0,0,0-.19-.35,2.68,2.68,0,0,0-.73-.15,3,3,0,0,1-.87-.18.9.9,0,0,1-.36-.21,1,1,0,0,1-.32-.84"></path>
      <path class="cls-2" d="M166,56.2a1.61,1.61,0,0,1,1.59-.79c1.09,0,1.64.52,1.64,1.57v2a.52.52,0,0,1-.06.29.59.59,0,0,1-.22.15,3.72,3.72,0,0,1-1.38.2,2.1,2.1,0,0,1-1.34-.31,1.12,1.12,0,0,1-.37-.93,1.07,1.07,0,0,1,.4-1,2.36,2.36,0,0,1,1.34-.28l.74,0V57a.66.66,0,0,0-.77-.76.91.91,0,0,0-.81.37c-.05.08-.1.13-.14.14a.27.27,0,0,1-.19,0l-.3-.13a.23.23,0,0,1-.13-.35m2.34,2.5v-.8l-.44,0-.3,0h-.1a1,1,0,0,0-.57.12.45.45,0,0,0-.17.38.47.47,0,0,0,.16.39,1,1,0,0,0,.56.12,3.93,3.93,0,0,0,.77-.06.11.11,0,0,0,.09-.11"></path>
      <path class="cls-2" d="M171,54.05v5.21a.28.28,0,0,1,0,.18.26.26,0,0,1-.19.05h-.41c-.09,0-.16,0-.19-.05a.28.28,0,0,1-.05-.18V54.05a.3.3,0,0,1,.05-.18s.1,0,.19,0h.41a.26.26,0,0,1,.19,0,.3.3,0,0,1,0,.18"></path>
      <path class="cls-2" d="M174.58,55.52H175a.3.3,0,0,1,.18,0,.26.26,0,0,1,0,.18v3.16a.62.62,0,0,1,0,.27.51.51,0,0,1-.25.16,4.08,4.08,0,0,1-1.5.27,1.63,1.63,0,0,1-1.2-.4,1.51,1.51,0,0,1-.4-1.14V55.75c0-.09,0-.15,0-.18a.3.3,0,0,1,.18,0h.43a.3.3,0,0,1,.18,0,.26.26,0,0,1,.05.18V58c0,.5.28.76.83.76a2.21,2.21,0,0,0,.71-.1.13.13,0,0,0,.08-.13V55.75a.22.22,0,0,1,.06-.18.26.26,0,0,1,.18,0"></path>
      <path class="cls-2" d="M176,58.06V57a1.44,1.44,0,0,1,1.61-1.61,5.82,5.82,0,0,1,.91.1V54.05a.3.3,0,0,1,.05-.18.24.24,0,0,1,.18,0h.42a.26.26,0,0,1,.19,0,.24.24,0,0,1,0,.18v4.89a.49.49,0,0,1-.06.27.62.62,0,0,1-.24.15,4,4,0,0,1-1.44.25c-1.11,0-1.67-.52-1.67-1.55m2.52.57V56.32a3.22,3.22,0,0,0-.74-.1c-.59,0-.88.27-.88.81v1c0,.51.28.77.85.77a2.55,2.55,0,0,0,.71-.09.08.08,0,0,0,.06-.08"></path>
      <path class="cls-2" d="M184.7,55.52h.3a.33.33,0,0,1,.22,0s0,.11,0,.22l-1.42,3.5a.31.31,0,0,1-.32.21h-.25a.31.31,0,0,1-.33-.21l-1.41-3.49c0-.12-.05-.19,0-.23s.1,0,.21,0h.3a.53.53,0,0,1,.3,0,.31.31,0,0,1,.12.19l.72,1.84.09.27c0,.11.05.21.07.31a.65.65,0,0,1,0,.18v.06h0q.1-.48.21-.81l.7-1.85a.34.34,0,0,1,.15-.19.52.52,0,0,1,.29,0"></path>
      <path class="cls-2" d="M186.13,54h.05a.38.38,0,0,1,.47.46v.07a.51.51,0,0,1-.1.37.5.5,0,0,1-.37.1h-.05a.48.48,0,0,1-.36-.1.51.51,0,0,1-.11-.37v-.07a.55.55,0,0,1,.1-.36.51.51,0,0,1,.37-.1M186,55.52h.42a.26.26,0,0,1,.18,0,.22.22,0,0,1,.06.18v3.51a.23.23,0,0,1-.06.18.22.22,0,0,1-.18.06H186a.22.22,0,0,1-.18-.06.23.23,0,0,1-.05-.18V55.75c0-.09,0-.15.05-.18a.26.26,0,0,1,.18,0"></path>
      <path class="cls-2" d="M187.43,56.64a1.08,1.08,0,0,1,.4-.9,1.84,1.84,0,0,1,1.18-.33,1.64,1.64,0,0,1,1.64.82.22.22,0,0,1-.12.34l-.35.14c-.09,0-.15,0-.19,0a.35.35,0,0,1-.13-.14.86.86,0,0,0-.83-.4q-.72,0-.72.42a.33.33,0,0,0,.19.33,2,2,0,0,0,.71.14,2.47,2.47,0,0,1,1.19.35,1,1,0,0,1,.37.89,1.15,1.15,0,0,1-.43.94,2,2,0,0,1-1.23.34,1.62,1.62,0,0,1-1.71-.93c-.06-.16,0-.26.16-.32l.34-.11a.22.22,0,0,1,.32.15c.11.28.4.42.86.42s.82-.15.82-.45a.37.37,0,0,0-.19-.35,2.68,2.68,0,0,0-.73-.15,3,3,0,0,1-.87-.18.9.9,0,0,1-.36-.21,1,1,0,0,1-.32-.84"></path>
      <path class="cls-2" d="M194.07,55.52h.42a.3.3,0,0,1,.18,0s.05.09.05.18v3.16a.5.5,0,0,1-.05.27.51.51,0,0,1-.25.16,4.08,4.08,0,0,1-1.5.27,1.63,1.63,0,0,1-1.2-.4,1.51,1.51,0,0,1-.4-1.14V55.75a.26.26,0,0,1,.05-.18.3.3,0,0,1,.18,0H192a.3.3,0,0,1,.18,0,.26.26,0,0,1,.05.18V58c0,.5.28.76.83.76a2.21,2.21,0,0,0,.71-.1.13.13,0,0,0,.08-.13V55.75a.22.22,0,0,1,.06-.18.28.28,0,0,1,.18,0"></path>
      <path class="cls-2" d="M195.53,56.2a1.63,1.63,0,0,1,1.59-.79c1.09,0,1.64.52,1.64,1.57v2a.52.52,0,0,1-.06.29.59.59,0,0,1-.22.15,3.72,3.72,0,0,1-1.38.2,2.1,2.1,0,0,1-1.34-.31,1.12,1.12,0,0,1-.37-.93,1.07,1.07,0,0,1,.4-1,2.39,2.39,0,0,1,1.34-.28l.74,0V57a.66.66,0,0,0-.77-.76.89.89,0,0,0-.8.37.43.43,0,0,1-.14.14.27.27,0,0,1-.19,0l-.31-.13a.23.23,0,0,1-.13-.35m2.34,2.5v-.8l-.44,0-.3,0H197a1,1,0,0,0-.57.12.44.44,0,0,0-.16.38.45.45,0,0,0,.16.39,1,1,0,0,0,.56.12,4,4,0,0,0,.77-.06.12.12,0,0,0,.08-.11"></path>
      <path class="cls-2" d="M200.5,54.05v5.21a.2.2,0,0,1-.24.23h-.42a.26.26,0,0,1-.19-.05.28.28,0,0,1-.05-.18V54.05a.3.3,0,0,1,.05-.18.26.26,0,0,1,.19,0h.42a.23.23,0,0,1,.18,0,.24.24,0,0,1,.06.18"></path>
      <path class="cls-2" d="M200.54,51.93H78.83a.65.65,0,0,1-.65-.64v-.5a.65.65,0,0,1,.65-.65H200.54a.65.65,0,0,1,.65.65v.5a.65.65,0,0,1-.65.64"></path>
      <path class="cls-1" d="M0,48.17l11-4A31.46,31.46,0,0,0,26.5,59.75S17,58.83,8.89,47.34Z"></path>
      <path class="cls-3" d="M64.72,42.31a19.92,19.92,0,0,0,5.85-13.73,5.14,5.14,0,0,1-2.29-1.33,5.21,5.21,0,0,1,0-7.36l.36-.31A20,20,0,0,0,42.71,9.79C48,10.34,51,12,54.87,15.86a20,20,0,0,1,0,28.28c-1.86,1.86-2.5,2.78-4.47,4a19.92,19.92,0,0,0,14.32-5.86"></path>
    </g>
  </g>
</svg>
